<svg viewBox="0 0 500 450.3" xmlns="http://www.w3.org/2000/svg" xmlns:xlink="http://www.w3.org/1999/xlink" overflow="hidden"><defs><clipPath id="__id28_s7mixsx4pq"><path d="M12 0 476 0 476 450.262 12 450.262Z"/></clipPath><clipPath id="__id29_s7mixsx4pq"><path d="M0 9 500.031 9 500.031 450.262 0 450.262Z"/></clipPath></defs><g><g id="__id30_s7mixsx4pq" clip-path="url(#__id28_s7mixsx4pq)"><path d="M84.8711 221.141 38.3945 221.141C36.5391 221.141 35.0391 219.641 35.0391 217.789L35.0391 211.98C35.0391 210.129 36.5391 208.629 38.3945 208.629L84.8711 208.629C86.7227 208.629 88.2227 210.129 88.2227 211.98L88.2227 217.789C88.2227 219.641 86.7227 221.141 84.8711 221.141ZM12.3242 181.559 12.3242 162.77 22.5117 162.77 22.5117 181.559C22.5117 182.227 21.9688 182.77 21.3008 182.77L13.5352 182.77C12.8672 182.77 12.3242 182.227 12.3242 181.559ZM96.6875 52.1445 96.6211 52.1289 96.6211 42.1641C96.6211 18.8789 77.7422 0 54.457 0 31.168 0 12.293 18.8789 12.293 42.1641L12.293 61.6562 14.6289 61.6562 24.2461 95.8125C24.625 97.1523 26.0156 97.9297 27.3516 97.5547L33.2891 95.8828C34.6289 95.5039 35.4062 94.1133 35.0312 92.7773L23.293 51.1055C22.9141 49.7695 21.5273 48.9922 20.1875 49.3672L16.5547 50.3906 16.5547 43.9922C16.5547 22.8828 33.5273 9.39062 54.457 9.39062 75.3906 9.39062 92.3555 22.8828 92.3555 43.9922L92.3555 50.9258 90.75 50.4727C89.4102 50.0977 88.0234 50.875 87.6484 52.2148L75.9062 93.8828C75.5312 95.2227 76.3086 96.6094 77.6484 96.9883L83.5859 98.6602C84.9219 99.0352 86.3125 98.2578 86.6914 96.9219L98.4258 55.25C98.8047 53.9141 98.0234 52.5234 96.6875 52.1445ZM208.758 65.6055 210.262 67.1094 221.883 55.4883 220.379 53.9844ZM221.766 50.1289 220.262 48.625 208.641 60.2461 210.145 61.75ZM461.789 450.262 33.8945 450.262C33.8945 450.262 64.9297 381.027 100.645 342.738 136.359 304.453 112.953 280.16 137.891 222.777 204.762 68.8984 309.523 49.2852 394.477 71.3008 538.496 108.617 361.031 209.75 433.793 228.988 506.555 248.227 461.789 450.262 461.789 450.262" fill="#289DD2"/></g><g id="__id31_s7mixsx4pq"><path d="M79.3281 354.07 29.2227 354.07C28.2969 354.07 27.5469 354.82 27.5469 355.742L27.5469 359.531 31.2578 359.531 34.6211 396.48 73.9297 396.48 77.293 359.531 81.0039 359.531 81.0039 355.742C81.0039 354.82 80.2539 354.07 79.3281 354.07ZM254.125 341.684C254.125 335.305 248.02 330.129 240.488 330.129 232.957 330.129 226.852 335.305 226.852 341.684 226.852 348.066 232.957 353.238 240.488 353.238 248.02 353.238 254.125 348.066 254.125 341.684ZM335.723 290.957 341.805 303.57 341.805 290.957ZM362.066 337.691 361.727 343.543 313.434 359.488 311.922 354.566 309.16 392.707 301.215 392.957 301.82 387.34C302.027 386.406 301.418 385.496 300.578 385.496L185.055 385.496 178.441 333.629 152.109 362.699 112.246 339.645 111.777 331.879C111.641 329.578 113.328 327.574 115.617 327.32L118.457 327.008 169.105 260.363 244.855 231.508 319.023 256.336 334.523 288.473 341.891 288.473C342.523 288.473 343.07 288.707 343.535 289.176 343.996 289.641 344.23 290.195 344.23 290.84L344.23 305.52C344.23 306.164 344 306.719 343.547 307.18L355.617 332.215 359.035 333.293C360.93 333.891 362.18 335.703 362.066 337.691ZM401.23 99.3711 410.145 99.3711C410.852 99.3711 411.426 98.8008 411.426 98.0938L411.426 96.5312 399.953 96.5312 399.953 98.0938C399.953 98.8008 400.523 99.3711 401.23 99.3711ZM269.113 67.8516C271.352 67.8516 273.172 66.0312 273.172 63.793 273.172 61.5547 271.352 59.7344 269.113 59.7344 266.879 59.7344 265.055 61.5547 265.055 63.793 265.055 66.0312 266.879 67.8516 269.113 67.8516ZM264.66 34.2031 165.922 34.2031 165.922 93.3828 264.66 93.3828ZM379.105 299.094C378.762 299.094 378.473 299.215 378.234 299.457 377.996 299.699 377.879 299.984 377.879 300.316L377.879 305.43 375.426 305.43 375.426 288.504 369.262 288.504C368.922 288.504 368.629 288.621 368.391 288.859 368.152 289.102 368.035 289.391 368.035 289.73 368.035 290.07 368.152 290.359 368.391 290.598 368.629 290.836 368.922 290.957 369.262 290.957L372.969 290.957 372.969 305.43 369.203 305.43C368.863 305.43 368.57 305.547 368.332 305.781 368.094 306.016 367.977 306.297 367.977 306.629 367.977 306.969 368.094 307.262 368.332 307.512 368.57 307.758 368.863 307.883 369.203 307.883L379.105 307.883C379.445 307.883 379.734 307.766 379.973 307.523 380.211 307.285 380.332 306.996 380.332 306.656L380.332 300.316C380.332 299.977 380.211 299.688 379.973 299.449 379.734 299.211 379.445 299.094 379.105 299.094ZM359.871 290.957 352.395 290.957 352.395 305.43 359.871 305.43ZM361.602 289.176C362.062 289.641 362.297 290.195 362.297 290.84L362.297 305.52C362.297 306.172 362.062 306.727 361.602 307.188 361.137 307.652 360.582 307.883 359.93 307.883L352.305 307.883C351.645 307.883 351.086 307.652 350.625 307.188 350.168 306.727 349.938 306.172 349.938 305.52L349.938 290.84C349.938 290.195 350.172 289.641 350.641 289.176 351.105 288.707 351.66 288.473 352.305 288.473L359.957 288.473C360.59 288.473 361.137 288.707 361.602 289.176ZM453.527 241.211 453.527 245.68 451.074 245.68 451.074 238.699C450.281 237.945 449.465 237.227 448.621 236.539L448.621 245.68 444.852 245.68C444.512 245.68 444.223 245.797 443.984 246.031 443.746 246.266 443.629 246.547 443.629 246.879 443.629 247.219 443.746 247.512 443.984 247.762 444.223 248.008 444.512 248.133 444.852 248.133L454.754 248.133C455.094 248.133 455.387 248.016 455.625 247.773 455.863 247.535 455.98 247.246 455.98 246.906L455.98 244.145C455.191 243.129 454.375 242.148 453.527 241.211ZM435.52 231.207 428.043 231.207 428.043 245.68 435.52 245.68ZM437.801 230.281C437.891 230.535 437.945 230.801 437.945 231.09L437.945 245.77C437.945 246.422 437.715 246.977 437.254 247.438 436.789 247.902 436.23 248.133 435.578 248.133L427.953 248.133C427.293 248.133 426.734 247.902 426.277 247.438 425.816 246.977 425.59 246.422 425.59 245.77L425.59 231.09C425.59 230.445 425.824 229.891 426.289 229.426 426.758 228.957 427.312 228.723 427.953 228.723L432.855 228.723C433.164 228.812 433.473 228.902 433.793 228.988 435.172 229.352 436.504 229.789 437.801 230.281ZM417.453 231.207 409.977 231.207 409.977 245.68 417.453 245.68ZM419.184 229.426C419.648 229.891 419.879 230.445 419.879 231.09L419.879 245.77C419.879 246.422 419.648 246.977 419.184 247.438 418.723 247.902 418.164 248.133 417.512 248.133L409.891 248.133C409.227 248.133 408.668 247.902 408.211 247.438 407.754 246.977 407.523 246.422 407.523 245.77L407.523 231.09C407.523 230.445 407.758 229.891 408.227 229.426 408.691 228.957 409.246 228.723 409.891 228.723L417.543 228.723C418.176 228.723 418.723 228.957 419.184 229.426ZM400.559 239.344C400.219 239.344 399.926 239.465 399.688 239.707 399.449 239.949 399.332 240.238 399.332 240.566L399.332 245.68 396.879 245.68 396.879 228.754 390.715 228.754C390.371 228.754 390.086 228.871 389.844 229.109 389.605 229.352 389.488 229.641 389.488 229.98 389.488 230.32 389.605 230.609 389.844 230.848 390.086 231.086 390.371 231.207 390.715 231.207L394.426 231.207 394.426 245.68 390.656 245.68C390.316 245.68 390.023 245.797 389.785 246.031 389.551 246.266 389.43 246.547 389.43 246.879 389.43 247.219 389.551 247.512 389.785 247.762 390.023 248.008 390.316 248.133 390.656 248.133L400.559 248.133C400.898 248.133 401.188 248.016 401.426 247.773 401.664 247.535 401.785 247.246 401.785 246.906L401.785 240.566C401.785 240.227 401.664 239.938 401.426 239.699 401.188 239.461 400.898 239.344 400.559 239.344ZM381.324 231.207 373.848 231.207 373.848 245.68 381.324 245.68ZM383.055 229.426C383.516 229.891 383.746 230.445 383.746 231.09L383.746 245.77C383.746 246.422 383.516 246.977 383.055 247.438 382.59 247.902 382.035 248.133 381.383 248.133L373.758 248.133C373.098 248.133 372.535 247.902 372.078 247.438 371.621 246.977 371.391 246.422 371.391 245.77L371.391 231.09C371.391 230.445 371.625 229.891 372.094 229.426 372.559 228.957 373.113 228.723 373.758 228.723L381.41 228.723C382.043 228.723 382.59 228.957 383.055 229.426ZM352.219 175.195 359.691 175.195 359.691 160.723 352.219 160.723ZM352.129 158.238 359.781 158.238C360.414 158.238 360.961 158.473 361.426 158.941 361.887 159.406 362.117 159.965 362.117 160.605L362.117 175.285C362.117 175.938 361.887 176.492 361.426 176.957 360.961 177.418 360.406 177.648 359.754 177.648L352.129 177.648C351.469 177.648 350.906 177.418 350.449 176.957 349.992 176.492 349.762 175.938 349.762 175.285L349.762 160.605C349.762 159.965 349.996 159.406 350.465 158.941 350.93 158.473 351.484 158.238 352.129 158.238ZM332.895 175.195C332.555 175.195 332.262 175.312 332.023 175.547 331.785 175.781 331.668 176.062 331.668 176.395 331.668 176.734 331.785 177.027 332.023 177.277 332.262 177.523 332.555 177.648 332.895 177.648L342.797 177.648C343.137 177.648 343.426 177.531 343.664 177.293 343.902 177.055 344.023 176.766 344.023 176.426L344.023 170.086C344.023 169.742 343.902 169.453 343.664 169.215 343.426 168.977 343.137 168.859 342.797 168.859 342.453 168.859 342.164 168.98 341.926 169.223 341.688 169.469 341.57 169.754 341.57 170.086L341.57 175.195 339.117 175.195 339.117 158.27 332.953 158.27C332.613 158.27 332.32 158.391 332.086 158.629 331.844 158.867 331.727 159.156 331.727 159.496 331.727 159.84 331.844 160.129 332.086 160.363 332.32 160.605 332.613 160.723 332.953 160.723L336.664 160.723 336.664 175.195ZM316.086 175.195 323.562 175.195 323.562 160.723 316.086 160.723ZM315.996 158.238 323.648 158.238C324.281 158.238 324.828 158.473 325.293 158.941 325.754 159.406 325.984 159.965 325.984 160.605L325.984 175.285C325.984 175.938 325.754 176.492 325.293 176.957 324.828 177.418 324.273 177.648 323.621 177.648L315.996 177.648C315.336 177.648 314.773 177.418 314.316 176.957 313.859 176.492 313.633 175.938 313.633 175.285L313.633 160.605C313.633 159.965 313.863 159.406 314.332 158.941 314.801 158.473 315.355 158.238 315.996 158.238ZM302.984 158.27 296.82 158.27C296.48 158.27 296.191 158.391 295.953 158.629 295.715 158.867 295.594 159.156 295.594 159.496 295.594 159.84 295.715 160.129 295.953 160.363 296.191 160.605 296.48 160.723 296.82 160.723L300.531 160.723 300.531 175.195 296.762 175.195C296.422 175.195 296.133 175.312 295.895 175.547 295.656 175.781 295.535 176.062 295.535 176.395 295.535 176.734 295.656 177.027 295.895 177.277 296.133 177.523 296.422 177.648 296.762 177.648L306.664 177.648C307.004 177.648 307.297 177.531 307.531 177.293 307.773 177.055 307.891 176.766 307.891 176.426L307.891 170.086C307.891 169.742 307.773 169.453 307.531 169.215 307.297 168.977 307.004 168.859 306.664 168.859 306.324 168.859 306.035 168.98 305.797 169.223 305.559 169.469 305.438 169.754 305.438 170.086L305.438 175.195 302.984 175.195ZM279.953 175.195 287.43 175.195 287.43 160.723 279.953 160.723ZM279.863 158.238 287.52 158.238C288.152 158.238 288.699 158.473 289.16 158.941 289.625 159.406 289.855 159.965 289.855 160.605L289.855 175.285C289.855 175.938 289.625 176.492 289.16 176.957 288.699 177.418 288.141 177.648 287.488 177.648L279.863 177.648C279.203 177.648 278.645 177.418 278.188 176.957 277.727 176.492 277.5 175.938 277.5 175.285L277.5 160.605C277.5 159.965 277.734 159.406 278.199 158.941 278.668 158.473 279.223 158.238 279.863 158.238ZM260.633 175.195C260.289 175.195 260 175.312 259.762 175.547 259.523 175.781 259.406 176.062 259.406 176.395 259.406 176.734 259.523 177.027 259.762 177.277 260 177.523 260.289 177.648 260.633 177.648L270.531 177.648C270.871 177.648 271.164 177.531 271.402 177.293 271.641 177.055 271.762 176.766 271.762 176.426L271.762 170.086C271.762 169.742 271.641 169.453 271.402 169.215 271.164 168.977 270.871 168.859 270.531 168.859 270.191 168.859 269.902 168.98 269.664 169.223 269.426 169.469 269.305 169.754 269.305 170.086L269.305 175.195 266.852 175.195 266.852 158.27 260.688 158.27C260.348 158.27 260.059 158.391 259.82 158.629 259.582 158.867 259.465 159.156 259.465 159.496 259.465 159.84 259.582 160.129 259.82 160.363 260.059 160.605 260.348 160.723 260.688 160.723L264.398 160.723 264.398 175.195ZM242.566 175.195C242.223 175.195 241.934 175.312 241.695 175.547 241.461 175.781 241.34 176.062 241.34 176.395 241.34 176.734 241.461 177.027 241.695 177.277 241.934 177.523 242.223 177.648 242.566 177.648L252.469 177.648C252.809 177.648 253.098 177.531 253.336 177.293 253.574 177.055 253.695 176.766 253.695 176.426L253.695 170.086C253.695 169.742 253.574 169.453 253.336 169.215 253.098 168.977 252.809 168.859 252.469 168.859 252.125 168.859 251.836 168.98 251.598 169.223 251.359 169.469 251.238 169.754 251.238 170.086L251.238 175.195 248.785 175.195 248.785 158.27 242.625 158.27C242.281 158.27 241.992 158.391 241.758 158.629 241.516 158.867 241.398 159.156 241.398 159.496 241.398 159.84 241.516 160.129 241.758 160.363 241.992 160.605 242.281 160.723 242.625 160.723L246.336 160.723 246.336 175.195ZM225.758 175.195 233.234 175.195 233.234 160.723 225.758 160.723ZM223.988 176.957C223.531 176.492 223.305 175.938 223.305 175.285L223.305 160.605C223.305 159.965 223.535 159.406 224.004 158.941 224.473 158.473 225.023 158.238 225.668 158.238L233.32 158.238C233.953 158.238 234.5 158.473 234.965 158.941 235.426 159.406 235.656 159.965 235.656 160.605L235.656 175.285C235.656 175.938 235.426 176.492 234.965 176.957 234.5 177.418 233.945 177.648 233.293 177.648L225.668 177.648C225.008 177.648 224.445 177.418 223.988 176.957ZM428.074 126.273 420.594 126.273 420.594 140.746 428.074 140.746ZM428.133 143.199 420.508 143.199C419.848 143.199 419.285 142.969 418.828 142.504 418.371 142.043 418.141 141.484 418.141 140.832L418.141 126.152C418.141 125.512 418.375 124.957 418.844 124.488 419.309 124.023 419.863 123.789 420.508 123.789L428.16 123.789C428.793 123.789 429.34 124.023 429.805 124.488 430.266 124.957 430.496 125.512 430.496 126.152L430.496 140.832C430.496 141.484 430.266 142.043 429.805 142.504 429.34 142.969 428.785 143.199 428.133 143.199ZM410.309 134.77C410.066 135.016 409.949 135.305 409.949 135.633L409.949 140.746 407.496 140.746 407.496 123.816 401.332 123.816C400.992 123.816 400.699 123.938 400.465 124.176 400.223 124.414 400.105 124.703 400.105 125.047 400.105 125.387 400.223 125.676 400.465 125.914 400.699 126.152 400.992 126.273 401.332 126.273L405.043 126.273 405.043 140.746 401.273 140.746C400.934 140.746 400.645 140.863 400.402 141.098 400.168 141.328 400.047 141.613 400.047 141.941 400.047 142.285 400.168 142.578 400.402 142.824 400.645 143.074 400.934 143.199 401.273 143.199L411.176 143.199C411.516 143.199 411.805 143.078 412.047 142.84 412.281 142.602 412.402 142.312 412.402 141.973L412.402 135.633C412.402 135.293 412.281 135.004 412.047 134.766 411.805 134.523 411.516 134.406 411.176 134.406 410.836 134.406 410.547 134.527 410.309 134.77ZM391.941 126.273 384.465 126.273 384.465 140.746 391.941 140.746ZM392 143.199 384.375 143.199C383.715 143.199 383.156 142.969 382.695 142.504 382.238 142.043 382.012 141.484 382.012 140.832L382.012 126.152C382.012 125.512 382.242 124.957 382.711 124.488 383.18 124.023 383.734 123.789 384.375 123.789L392.027 123.789C392.66 123.789 393.211 124.023 393.672 124.488 394.137 124.957 394.367 125.512 394.367 126.152L394.367 140.832C394.367 141.484 394.137 142.043 393.672 142.504 393.211 142.969 392.652 143.199 392 143.199ZM375.914 142.84C376.152 142.602 376.27 142.312 376.27 141.973L376.27 135.633C376.27 135.293 376.152 135.004 375.914 134.766 375.676 134.523 375.387 134.406 375.043 134.406 374.703 134.406 374.414 134.527 374.176 134.77 373.938 135.016 373.816 135.305 373.816 135.633L373.816 140.746 371.363 140.746 371.363 123.816 365.199 123.816C364.859 123.816 364.57 123.938 364.332 124.176 364.094 124.414 363.973 124.703 363.973 125.047 363.973 125.387 364.094 125.676 364.332 125.914 364.57 126.152 364.859 126.273 365.199 126.273L368.91 126.273 368.91 140.746 365.141 140.746C364.801 140.746 364.512 140.863 364.273 141.098 364.035 141.328 363.914 141.613 363.914 141.941 363.914 142.285 364.035 142.578 364.273 142.824 364.512 143.074 364.801 143.199 365.141 143.199L375.043 143.199C375.387 143.199 375.676 143.078 375.914 142.84ZM355.809 126.273 348.332 126.273 348.332 140.746 355.809 140.746ZM355.898 123.789C356.531 123.789 357.078 124.023 357.539 124.488 358.004 124.957 358.234 125.512 358.234 126.152L358.234 140.832C358.234 141.484 358.004 142.043 357.539 142.504 357.078 142.969 356.52 143.199 355.867 143.199L348.246 143.199C347.582 143.199 347.023 142.969 346.566 142.504 346.105 142.043 345.879 141.484 345.879 140.832L345.879 126.152C345.879 125.512 346.113 124.957 346.578 124.488 347.047 124.023 347.602 123.789 348.246 123.789ZM329.012 140.746C328.672 140.746 328.379 140.863 328.141 141.098 327.902 141.328 327.785 141.613 327.785 141.941 327.785 142.285 327.902 142.578 328.141 142.824 328.379 143.074 328.672 143.199 329.012 143.199L338.91 143.199C339.254 143.199 339.543 143.078 339.781 142.84 340.02 142.602 340.141 142.312 340.141 141.973L340.141 135.633C340.141 135.293 340.02 135.004 339.781 134.766 339.543 134.523 339.254 134.406 338.91 134.406 338.57 134.406 338.281 134.527 338.043 134.77 337.805 135.016 337.684 135.305 337.684 135.633L337.684 140.746 335.23 140.746 335.23 123.816 329.066 123.816C328.727 123.816 328.438 123.938 328.199 124.176 327.961 124.414 327.844 124.703 327.844 125.047 327.844 125.387 327.961 125.676 328.199 125.914 328.438 126.152 328.727 126.273 329.066 126.273L332.777 126.273 332.777 140.746ZM319.977 134.77C319.738 135.016 319.621 135.305 319.621 135.633L319.621 140.746 317.164 140.746 317.164 123.816 311.004 123.816C310.66 123.816 310.371 123.938 310.137 124.176 309.895 124.414 309.777 124.703 309.777 125.047 309.777 125.387 309.895 125.676 310.137 125.914 310.371 126.152 310.66 126.273 311.004 126.273L314.715 126.273 314.715 140.746 310.945 140.746C310.605 140.746 310.312 140.863 310.074 141.098 309.84 141.328 309.719 141.613 309.719 141.941 309.719 142.285 309.84 142.578 310.074 142.824 310.312 143.074 310.605 143.199 310.945 143.199L320.848 143.199C321.188 143.199 321.477 143.078 321.715 142.84 321.953 142.602 322.074 142.312 322.074 141.973L322.074 135.633C322.074 135.293 321.953 135.004 321.715 134.766 321.477 134.523 321.188 134.406 320.848 134.406 320.508 134.406 320.215 134.527 319.977 134.77ZM301.613 126.273 294.137 126.273 294.137 140.746 301.613 140.746ZM301.699 123.789C302.332 123.789 302.879 124.023 303.344 124.488 303.805 124.957 304.035 125.512 304.035 126.152L304.035 140.832C304.035 141.484 303.805 142.043 303.344 142.504 302.879 142.969 302.324 143.199 301.672 143.199L294.047 143.199C293.387 143.199 292.824 142.969 292.367 142.504 291.91 142.043 291.68 141.484 291.68 140.832L291.68 126.152C291.68 125.512 291.914 124.957 292.383 124.488 292.848 124.023 293.402 123.789 294.047 123.789ZM347.535 115.289 355.012 115.289 355.012 100.816 347.535 100.816ZM345.766 117.051C345.309 116.59 345.082 116.031 345.082 115.379L345.082 100.699C345.082 100.059 345.316 99.5039 345.781 99.0352 346.25 98.5703 346.805 98.3359 347.445 98.3359L355.102 98.3359C355.73 98.3359 356.281 98.5703 356.742 99.0352 357.203 99.5039 357.438 100.059 357.438 100.699L357.438 115.379C357.438 116.031 357.203 116.59 356.742 117.051 356.281 117.516 355.723 117.746 355.07 117.746L347.445 117.746C346.785 117.746 346.227 117.516 345.766 117.051ZM328.215 115.289C327.871 115.289 327.582 115.41 327.344 115.645 327.105 115.875 326.984 116.156 326.984 116.488 326.984 116.828 327.105 117.125 327.344 117.371 327.582 117.621 327.871 117.746 328.215 117.746L338.113 117.746C338.453 117.746 338.746 117.625 338.984 117.387 339.223 117.148 339.344 116.859 339.344 116.52L339.344 110.18C339.344 109.84 339.223 109.551 338.984 109.312 338.746 109.07 338.453 108.953 338.113 108.953 337.773 108.953 337.484 109.074 337.246 109.316 337.008 109.562 336.887 109.848 336.887 110.18L336.887 115.289 334.434 115.289 334.434 99.3711 342.539 99.3711C343.242 99.3711 343.816 98.8008 343.816 98.0938L343.816 96.5312 332.344 96.5312 332.344 98.0938C332.344 98.1875 332.383 98.2734 332.402 98.3633L328.27 98.3633C327.93 98.3633 327.641 98.4844 327.402 98.7227 327.164 98.9609 327.047 99.2539 327.047 99.5938 327.047 99.9336 327.164 100.223 327.402 100.461 327.641 100.699 327.93 100.816 328.27 100.816L331.98 100.816 331.98 115.289ZM311.402 115.289 318.883 115.289 318.883 100.816 311.402 100.816ZM309.637 117.051C309.18 116.59 308.949 116.031 308.949 115.379L308.949 100.699C308.949 100.059 309.184 99.5039 309.652 99.0352 310.117 98.5703 310.672 98.3359 311.316 98.3359L318.969 98.3359C319.602 98.3359 320.148 98.5703 320.609 99.0352 321.074 99.5039 321.305 100.059 321.305 100.699L321.305 115.379C321.305 116.031 321.074 116.59 320.609 117.051 320.148 117.516 319.594 117.746 318.938 117.746L311.316 117.746C310.652 117.746 310.094 117.516 309.637 117.051ZM293.34 115.289 300.812 115.289 300.812 100.816 293.34 100.816ZM291.57 117.051C291.113 116.59 290.883 116.031 290.883 115.379L290.883 100.699C290.883 100.059 291.117 99.5039 291.586 99.0352 292.051 98.5703 292.605 98.3359 293.25 98.3359L300.902 98.3359C301.535 98.3359 302.082 98.5703 302.547 99.0352 303.008 99.5039 303.238 100.059 303.238 100.699L303.238 115.379C303.238 116.031 303.008 116.59 302.547 117.051 302.082 117.516 301.527 117.746 300.875 117.746L293.25 117.746C292.59 117.746 292.027 117.516 291.57 117.051ZM275.273 115.289 282.75 115.289 282.75 100.816 275.273 100.816ZM272.816 100.699C272.816 100.059 273.051 99.5039 273.52 99.0352 273.984 98.5703 274.539 98.3359 275.184 98.3359L282.836 98.3359C283.469 98.3359 284.016 98.5703 284.48 99.0352 284.941 99.5039 285.176 100.059 285.176 100.699L285.176 115.379C285.176 116.031 284.941 116.59 284.48 117.051 284.016 117.516 283.461 117.746 282.809 117.746L275.184 117.746C274.523 117.746 273.965 117.516 273.504 117.051 273.047 116.59 272.816 116.031 272.816 115.379ZM264.625 115.289 262.172 115.289 262.172 98.3633 256.008 98.3633C255.668 98.3633 255.379 98.4844 255.141 98.7227 254.902 98.9609 254.781 99.2539 254.781 99.5938 254.781 99.9336 254.902 100.223 255.141 100.461 255.379 100.699 255.668 100.816 256.008 100.816L259.719 100.816 259.719 115.289 255.949 115.289C255.609 115.289 255.32 115.41 255.082 115.645 254.844 115.875 254.723 116.156 254.723 116.488 254.723 116.828 254.844 117.125 255.082 117.371 255.32 117.621 255.609 117.746 255.949 117.746L265.852 117.746C266.191 117.746 266.48 117.625 266.719 117.387 266.961 117.148 267.078 116.859 267.078 116.52L267.078 110.18C267.078 109.84 266.961 109.551 266.719 109.312 266.48 109.07 266.191 108.953 265.852 108.953 265.512 108.953 265.223 109.074 264.984 109.316 264.742 109.562 264.625 109.848 264.625 110.18ZM237.883 115.289C237.543 115.289 237.254 115.41 237.016 115.645 236.777 115.875 236.656 116.156 236.656 116.488 236.656 116.828 236.777 117.125 237.016 117.371 237.254 117.621 237.543 117.746 237.883 117.746L247.785 117.746C248.125 117.746 248.414 117.625 248.656 117.387 248.895 117.148 249.012 116.859 249.012 116.52L249.012 110.18C249.012 109.84 248.895 109.551 248.656 109.312 248.414 109.07 248.125 108.953 247.785 108.953 247.445 108.953 247.156 109.074 246.918 109.316 246.68 109.562 246.559 109.848 246.559 110.18L246.559 115.289 244.105 115.289 244.105 98.3633 237.941 98.3633C237.602 98.3633 237.312 98.4844 237.074 98.7227 236.836 98.9609 236.715 99.2539 236.715 99.5938 236.715 99.9336 236.836 100.223 237.074 100.461 237.312 100.699 237.602 100.816 237.941 100.816L241.652 100.816 241.652 115.289ZM218.621 107.363 218.621 115.379C218.621 116.031 218.848 116.59 219.309 117.051 219.766 117.516 220.324 117.746 220.984 117.746L228.609 117.746C229.262 117.746 229.82 117.516 230.281 117.051 230.746 116.59 230.977 116.031 230.977 115.379L230.977 100.699C230.977 100.059 230.746 99.5039 230.281 99.0352 230.133 98.8828 229.969 98.7656 229.797 98.6602 228.82 99.3672 227.852 100.09 226.879 100.816L228.551 100.816 228.551 115.289 221.074 115.289 221.074 105.352C220.258 106.012 219.438 106.684 218.621 107.363ZM46.6875 158.602 50.9805 158.602 50.9805 151.34 51.6523 151.34 51.6523 158.602 55.5078 158.602C56.6992 158.602 57.6914 158.262 58.4609 157.59 59.2539 156.895 59.6719 155.938 59.6719 154.824 59.6719 153.953 59.4102 153.211 58.9141 152.648 59.3867 151.992 59.5117 151.305 59.5117 150.762 59.5117 149.699 59.1016 148.77 58.3281 148.078 57.5625 147.395 56.4375 147.062 54.8867 147.062L45.2305 147.062 45.2305 151.34 46.6875 151.34ZM40.5625 151.164 39.3633 151.164 39.3633 147.062 44.7266 147.062 44.7266 158.602 40.5625 158.602 40.5625 151.164" fill="#FFFFFF"/></g><g id="__id32_s7mixsx4pq"><path d="M264.055 226.691 264.055 238.977 269.996 243.594C269.996 243.594 249.668 265.965 242.32 265.965 235.02 265.965 215.035 245.363 215.035 245.363L221.801 240.48 221.801 228.078C218.883 225.066 217.043 221.059 216.824 216.047L216.285 202.879C212.348 203.238 206.012 191.922 209.406 186.586 211.328 183.566 213.781 185.598 215.684 188.219L215 171.441C214.738 165.586 219.418 160.699 225.277 160.699L259.371 160.699C265.23 160.699 269.906 165.586 269.648 171.441L268.781 192.633C270.074 189.078 273.102 182.203 275.891 186.586 279.477 192.223 272.199 204.543 268.371 202.703L267.824 216.047C267.637 220.324 266.262 223.867 264.055 226.691ZM149.277 361.062 115.57 341.566 100.953 362.703 100.922 362.699 95.1797 371.199C89.5938 379.473 98.2344 397.98 108.168 399.008L197.129 401.273 197.602 396.684 171.793 396.684 170.969 388.141C170.668 386.801 171.547 385.496 172.746 385.496L198.758 385.496 200.055 372.93 144.73 367.223ZM352.625 399.809 301.156 393.516 301.82 387.34C302.027 386.406 301.418 385.496 300.578 385.496L264.449 385.496 265.555 360.539 319.758 362.945 317.211 358.242 356.324 345.328 368.59 372.211 369.547 374.207C373.863 383.211 362.598 400.25 352.625 399.809" fill="#E4955D"/></g><g id="__id33_s7mixsx4pq" clip-path="url(#__id29_s7mixsx4pq)"><path d="M70.5898 365.965 70.5898 369.227C70.5898 369.812 71.0664 370.289 71.6523 370.289 72.2383 370.289 72.7148 369.812 72.7148 369.227L72.7148 365.965C72.7148 365.379 72.2383 364.902 71.6523 364.902 71.0664 364.902 70.5898 365.379 70.5898 365.965ZM67.6094 369.227 67.6094 365.965C67.6094 365.379 67.1328 364.902 66.543 364.902 65.957 364.902 65.4805 365.379 65.4805 365.965L65.4805 369.227C65.4805 369.812 65.957 370.289 66.543 370.289 67.1328 370.289 67.6094 369.812 67.6094 369.227ZM62.5039 369.227 62.5039 365.965C62.5039 365.379 62.0273 364.902 61.4414 364.902 60.8516 364.902 60.375 365.379 60.375 365.965L60.375 369.227C60.375 369.812 60.8516 370.289 61.4414 370.289 62.0273 370.289 62.5039 369.812 62.5039 369.227ZM57.3945 369.227 57.3945 365.965C57.3945 365.379 56.918 364.902 56.332 364.902 55.7422 364.902 55.2695 365.379 55.2695 365.965L55.2695 369.227C55.2695 369.812 55.7422 370.289 56.332 370.289 56.918 370.289 57.3945 369.812 57.3945 369.227ZM52.2891 369.227 52.2891 365.965C52.2891 365.379 51.8164 364.902 51.2266 364.902 50.6406 364.902 50.1641 365.379 50.1641 365.965L50.1641 369.227C50.1641 369.812 50.6406 370.289 51.2266 370.289 51.8164 370.289 52.2891 369.812 52.2891 369.227ZM47.1836 369.227 47.1836 365.965C47.1836 365.379 46.707 364.902 46.1172 364.902 45.5312 364.902 45.0547 365.379 45.0547 365.965L45.0547 369.227C45.0547 369.812 45.5312 370.289 46.1172 370.289 46.707 370.289 47.1836 369.812 47.1836 369.227ZM42.0781 369.227 42.0781 365.965C42.0781 365.379 41.6016 364.902 41.0156 364.902 40.4258 364.902 39.9492 365.379 39.9492 365.965L39.9492 369.227C39.9492 369.812 40.4258 370.289 41.0156 370.289 41.6016 370.289 42.0781 369.812 42.0781 369.227ZM36.9688 365.965C36.9688 365.379 36.4922 364.902 35.9062 364.902 35.3203 364.902 34.8438 365.379 34.8438 365.965L34.8438 369.227C34.8438 369.812 35.3203 370.289 35.9062 370.289 36.4922 370.289 36.9688 369.812 36.9688 369.227ZM37.707 375.332 68.6562 375.332C69.2461 375.332 69.7227 374.855 69.7227 374.27 69.7227 373.68 69.2461 373.203 68.6562 373.203L37.707 373.203C37.1172 373.203 36.6445 373.68 36.6445 374.27 36.6445 374.855 37.1172 375.332 37.707 375.332ZM256.656 185.266C254.723 185.254 252.828 185.742 251.309 186.734 250.816 187.059 250.68 187.719 251 188.211 251.32 188.699 251.98 188.84 252.473 188.516 253.617 187.766 255.125 187.34 256.609 187.391 258.094 187.426 259.574 187.902 260.676 188.703 260.863 188.84 261.082 188.906 261.297 188.906 261.629 188.906 261.949 188.754 262.16 188.469 262.504 187.992 262.398 187.328 261.926 186.984 260.461 185.918 258.59 185.309 256.656 185.266ZM230.199 185.488C228.266 185.371 226.348 185.84 224.773 186.777 224.27 187.078 224.105 187.73 224.406 188.234 224.703 188.738 225.355 188.902 225.863 188.605 227.059 187.891 228.59 187.539 230.078 187.613 231.551 187.695 232.996 188.223 234.043 189.055 234.238 189.211 234.473 189.285 234.703 189.285 235.016 189.285 235.324 189.148 235.535 188.887 235.902 188.426 235.824 187.758 235.367 187.391 233.965 186.273 232.129 185.598 230.199 185.488ZM233.355 221.719C233.262 222.297 233.652 222.844 234.23 222.941 234.496 222.984 238.715 223.668 243.477 223.668 245.957 223.668 248.586 223.48 250.879 222.926 251.449 222.785 251.801 222.211 251.66 221.641 251.523 221.07 250.945 220.715 250.379 220.859 244.105 222.383 234.672 220.859 234.578 220.844 233.988 220.738 233.449 221.141 233.355 221.719ZM120.898 330.035C121.133 330.145 144.496 340.73 151.336 347.98 151.543 348.199 151.824 348.312 152.105 348.312 152.367 348.312 152.633 348.219 152.84 348.023 153.266 347.621 153.285 346.949 152.883 346.52 145.762 338.969 122.75 328.539 121.773 328.098 121.234 327.855 120.609 328.098 120.367 328.629 120.125 329.164 120.363 329.797 120.898 330.035ZM314.969 349.887C315.227 349.887 315.488 349.793 315.695 349.602 327.137 338.922 350.629 333.984 350.863 333.934 351.438 333.816 351.809 333.254 351.691 332.68 351.574 332.102 351.008 331.734 350.434 331.852 349.449 332.055 326.125 336.953 314.242 348.047 313.812 348.445 313.789 349.121 314.191 349.551 314.398 349.773 314.684 349.887 314.969 349.887ZM268.324 178.52C268.43 176.293 266.352 174.605 264.195 175.16L244.066 180.363C244.066 180.363 231.156 177.215 222.762 175.199 219.531 174.426 216.438 176.891 216.465 180.211L216.539 189.188 217.215 190.879C217.652 190.27 218.367 189.871 219.176 189.871L238.266 189.871C239.594 189.871 240.676 190.953 240.676 192.281L240.676 192.406 245.996 192.406 245.996 192.043C245.996 190.848 246.969 189.871 248.164 189.871L267.738 189.871C267.758 189.871 267.773 189.879 267.793 189.879ZM267.781 195.758C267.758 195.848 267.73 195.941 267.711 196.027L267.5 196.133 267.691 192.043 248.164 192 248.125 203.812 267.738 203.852 267.781 203.812ZM238.547 192.281C238.547 192.129 238.422 192 238.266 192L219.176 192C219.016 192 218.891 192.129 218.891 192.281L218.891 203.57C218.891 203.727 219.016 203.852 219.176 203.852L238.266 203.852C238.422 203.852 238.547 203.727 238.547 203.57ZM273.719 150.57C278.297 157.906 278.828 169.809 274.738 185.395 274.309 185.152 273.879 185.133 273.453 185.27L269.906 194.164 269.906 203.812C269.906 205.008 268.934 205.98 267.738 205.98L248.164 205.98C246.969 205.98 245.996 205.008 245.996 203.812L245.996 194.531 240.676 194.531 240.676 203.57C240.676 204.898 239.594 205.98 238.266 205.98L219.176 205.98C217.848 205.98 216.766 204.898 216.766 203.57L216.766 194.879C216.566 194.766 216.402 194.582 216.312 194.355L212.73 185.379C211.992 185.02 211.25 184.961 210.547 185.391 207.699 177.062 205.109 165.496 208.441 156.723 220.254 125.609 256.629 145.785 256.629 145.785 256.629 145.785 268.348 141.965 273.719 150.57ZM423.566 51.9297C423.242 52.4219 423.379 53.082 423.871 53.4023 424.051 53.5234 424.254 53.5781 424.453 53.5781 424.801 53.5781 425.141 53.4102 425.344 53.1016 442.043 27.7188 425.988 10.4414 425.824 10.2695 425.418 9.84766 424.746 9.83203 424.32 10.2383 423.895 10.6445 423.883 11.3164 424.289 11.7422 424.441 11.8984 439.344 27.9492 423.566 51.9297ZM416.73 50.1758C416.91 50.2969 417.113 50.3516 417.312 50.3516 417.66 50.3516 418 50.1836 418.203 49.8711 431.301 29.9688 418.68 16.3867 418.551 16.2539 418.145 15.8281 417.477 15.8125 417.051 16.2188 416.625 16.6211 416.609 17.2969 417.012 17.7227 417.488 18.2227 428.566 30.2578 416.426 48.7031 416.102 49.1953 416.238 49.8555 416.73 50.1758ZM409.664 44.3438C409.848 44.4648 410.051 44.5195 410.25 44.5195 410.594 44.5195 410.934 44.3516 411.137 44.0391 419.676 31.0703 411.402 22.1719 411.316 22.0859 410.91 21.6602 410.242 21.6445 409.82 22.0508 409.395 22.4531 409.379 23.125 409.777 23.5508 410.074 23.8633 416.938 31.3594 409.363 42.8711 409.039 43.3633 409.176 44.0234 409.664 44.3438ZM379.758 54.3242C379.961 54.3242 380.16 54.2695 380.344 54.1484 380.832 53.8281 380.969 53.168 380.645 52.6758 364.902 28.7539 379.305 13.1406 379.926 12.4844 380.328 12.0586 380.312 11.3867 379.887 10.9844 379.465 10.5781 378.793 10.5938 378.387 11.0156 378.223 11.1875 362.168 28.4648 378.867 53.8477 379.074 54.1562 379.41 54.3242 379.758 54.3242ZM386.012 50.6172C386.215 50.9297 386.551 51.0977 386.898 51.0977 387.098 51.0977 387.301 51.0391 387.48 50.9219 387.973 50.5977 388.109 49.9414 387.785 49.4492 375.648 31.0039 386.719 18.9727 387.199 18.4688 387.602 18.043 387.59 17.3711 387.164 16.9648 386.738 16.5586 386.066 16.5742 385.66 17 385.531 17.1328 372.91 30.7148 386.012 50.6172ZM393.961 45.2656C394.16 45.2656 394.363 45.2109 394.547 45.0898 395.035 44.7656 395.172 44.1094 394.848 43.6172 387.273 32.1055 394.133 24.6172 394.434 24.3008 394.836 23.875 394.82 23.2031 394.398 22.7969 393.973 22.3906 393.301 22.4062 392.895 22.832 392.809 22.918 384.539 31.8164 393.074 44.7852 393.277 45.0977 393.617 45.2656 393.961 45.2656ZM81.0039 359.531 27.5469 359.531 31.457 363.473 77.0938 363.473ZM83.0938 298.426C83.0938 295.488 80.7148 293.109 77.7773 293.109 74.8398 293.109 72.4609 295.488 72.4609 298.426L72.4609 316.203 65.4922 316.203 65.4922 288.117C65.4922 284.117 62.25 280.871 58.2461 280.871L51.2695 280.871C47.2656 280.871 44.0234 284.117 44.0234 288.117L44.0234 327.754 38.4062 327.754 38.4062 309.973C38.4062 307.035 36.0273 304.656 33.0898 304.656 30.1562 304.656 27.7734 307.035 27.7734 309.973L27.7734 328.168C27.7734 333.805 32.3594 338.387 37.9961 338.387L44.0234 338.387 44.0234 354.07 65.4922 354.07 65.4922 326.84 72.8711 326.84C78.5078 326.84 83.0938 322.254 83.0938 316.617ZM429.137 357.395 429.137 378.773 432.363 378.773C432.914 378.773 433.406 378.426 433.59 377.906L436.633 369.32C437.883 365.801 438.074 362.02 437.188 358.387 437.047 357.805 436.527 357.395 435.926 357.395ZM429.137 352.078 435.926 352.078C438.984 352.078 441.629 354.156 442.355 357.129 443.484 361.77 443.238 366.602 441.645 371.102L438.602 379.684C437.664 382.32 435.16 384.09 432.363 384.09L429.137 384.09 429.137 395.664C429.137 397.762 427.434 399.461 425.34 399.461L394.137 399.461C392.039 399.461 390.34 397.762 390.34 395.664L390.34 349.133 429.137 349.133ZM254.125 341.684C254.125 335.305 248.02 330.129 240.488 330.129 232.957 330.129 226.852 335.305 226.852 341.684 226.852 348.066 232.957 353.238 240.488 353.238 248.02 353.238 254.125 348.066 254.125 341.684ZM302.367 290.77C302.816 278.566 307.363 269.18 307.57 268.762 307.828 268.234 308.465 268.016 308.996 268.273 309.52 268.535 309.738 269.172 309.48 269.699 309.43 269.797 304.961 279.047 304.496 290.77L308.496 290.77C311.285 290.77 313.523 293.078 313.43 295.867L310.492 384.684C310.406 387.348 308.223 389.457 305.559 389.457L171.395 389.457C168.73 389.457 166.551 387.348 166.461 384.684L163.523 295.867C163.434 293.078 165.668 290.77 168.461 290.77L175.852 290.77C176.129 285.125 172.25 276.598 172.211 276.512 171.965 275.977 172.195 275.348 172.73 275.102 173.266 274.855 173.895 275.09 174.141 275.621 174.312 276 178.227 284.602 177.98 290.77L236.887 290.77 236.621 271.605C236.594 269.723 237.605 267.98 239.258 267.07L241.082 266.066 229.418 260.438C227.262 259.344 225.371 258.16 223.758 259.781L218.227 265.336C217.191 266.375 215.418 265.664 215.387 264.195L215.004 245.555C214.613 242.297 221.801 228.184 221.801 228.184 221.801 228.184 225.289 251.215 241.582 265.789L245.117 263.844C261.012 250.973 264.055 226.73 264.055 226.73 264.055 226.73 270.355 240.336 269.996 243.594L271.047 260.301C271.141 261.781 269.469 262.707 268.266 261.84L266.902 260.863C264.289 258.98 260.418 258.547 257.199 259.766L247.75 263.629 247.75 290.77ZM493.777 399.699 310.828 399.699 311.664 392.934C311.906 392 311.203 391.09 310.238 391.09L163.172 391.09C161.789 391.09 160.781 392.395 161.129 393.734L161.789 399.699 69.7969 399.699 71.168 396.48 36.0742 396.48 37.4492 399.699 6.25781 399.699C2.80078 399.699 0 402.5 0 405.957L0 414.426C0 417.883 2.80078 420.684 6.25781 420.684L41.5273 420.684 41.5273 450.262 457.148 450.262 457.148 420.684 493.777 420.684C497.23 420.684 500.031 417.883 500.031 414.426L500.031 405.957C500.031 402.5 497.23 399.699 493.777 399.699ZM246.07 213.547C248.375 212.711 245.07 206.238 243.371 203.211 243 202.551 242.09 202.613 241.816 203.312 240.684 206.246 238.453 212.16 238.473 213.324 238.496 214.891 243.055 214.645 246.07 213.547ZM230.922 193.566C229.832 193.566 228.949 194.918 228.949 196.586 228.949 198.254 229.832 199.605 230.922 199.605 232.012 199.605 232.895 198.254 232.895 196.586 232.895 194.918 232.012 193.566 230.922 193.566ZM255.719 193.566C254.629 193.566 253.742 194.918 253.742 196.586 253.742 198.254 254.629 199.605 255.719 199.605 256.805 199.605 257.688 198.254 257.688 196.586 257.688 194.918 256.805 193.566 255.719 193.566ZM241.543 248.105C245.266 249.238 260.824 233.605 263.773 227.059 259.637 232.07 252.746 234.656 244.965 234.656L239.684 234.656C232.898 234.656 226.793 232.691 222.594 228.867 227.855 235.039 238.484 247.168 241.543 248.105ZM219.598 225.309C219.598 225.309 219.621 225.34 219.664 225.391 219.645 225.363 219.633 225.336 219.613 225.309ZM373.508 82.6992C373.508 84.2656 374.777 85.5352 376.344 85.5352 377.91 85.5352 379.18 84.2656 379.18 82.6992 379.18 81.1328 377.91 79.8633 376.344 79.8633 374.777 79.8633 373.508 81.1328 373.508 82.6992ZM384.57 82.6992C384.57 84.2656 385.844 85.5352 387.406 85.5352 388.977 85.5352 390.246 84.2656 390.246 82.6992 390.246 81.1328 388.977 79.8633 387.406 79.8633 385.844 79.8633 384.57 81.1328 384.57 82.6992ZM395.816 82.6992C395.816 84.2656 397.09 85.5352 398.656 85.5352 400.223 85.5352 401.492 84.2656 401.492 82.6992 401.492 81.1328 400.223 79.8633 398.656 79.8633 397.09 79.8633 395.816 81.1328 395.816 82.6992ZM344.402 82.6992C344.402 81.1328 343.133 79.8633 341.566 79.8633 340 79.8633 338.73 81.1328 338.73 82.6992 338.73 84.2656 340 85.5352 341.566 85.5352 343.133 85.5352 344.402 84.2656 344.402 82.6992ZM327.562 90.5234 324.848 90.5234 324.848 74.1055 327.562 74.1055 327.562 70.1445C327.562 69.4375 328.137 68.8672 328.84 68.8672L343.949 68.8672 371.93 61.8867C372.906 61.6406 373.898 62.2344 374.141 63.2109L374.609 65.082C374.852 66.0586 374.258 67.0469 373.281 67.293L366.969 68.8672 398.707 68.8672 398.707 31.1719C398.707 30.1641 399.523 29.3477 400.527 29.3477L402.457 29.3477C403.465 29.3477 404.281 30.1641 404.281 31.1719L404.281 68.8672 414.199 68.8672C414.902 68.8672 415.477 69.4375 415.477 70.1445L415.477 74.1055 417.988 74.1055 417.988 90.5234 415.477 90.5234 415.477 95.2539C415.477 95.9609 414.902 96.5312 414.199 96.5312L328.84 96.5312C328.137 96.5312 327.562 95.9609 327.562 95.2539ZM166.984 92.3203 263.598 92.3203 263.598 35.2656 166.984 35.2656ZM266.117 63.793C266.117 65.4453 267.461 66.7891 269.113 66.7891 270.766 66.7891 272.109 65.4453 272.109 63.793 272.109 62.1406 270.766 60.8008 269.113 60.8008 267.461 60.8008 266.117 62.1406 266.117 63.793ZM154.902 92.3359 154.902 35.25C154.902 31.9453 157.582 29.2695 160.887 29.2695L269.75 29.2695C273.055 29.2695 275.73 31.9453 275.73 35.25L275.73 92.3359C275.73 95.6406 273.055 98.3164 269.75 98.3164L160.887 98.3164C157.582 98.3164 154.902 95.6406 154.902 92.3359ZM13.7773 164.734 13.7773 166.539 15.582 166.539 15.582 164.734ZM18.9648 164.734 18.9648 166.539 20.7695 166.539 20.7695 164.734ZM58.6094 154.824C58.6094 153.809 58.1523 153.121 57.2344 152.758 58.043 152.254 58.4492 151.59 58.4492 150.762 58.4492 149.996 58.1719 149.367 57.6172 148.867 57.0625 148.371 56.1523 148.125 54.8867 148.125L52.7188 148.125 52.7188 157.539 55.5078 157.539C56.4414 157.539 57.1914 157.289 57.7578 156.789 58.3281 156.293 58.6094 155.637 58.6094 154.824ZM51.3906 148.125 46.293 148.125 46.293 150.273 47.7539 150.273 47.7539 157.539 49.918 157.539 49.918 150.273 51.3906 150.273ZM43.6602 148.125 40.4258 148.125 40.4258 150.102 41.625 150.102 41.625 157.539 43.6602 157.539ZM87.0352 218.855 78.4453 218.855C78.5469 219.02 78.6211 219.199 78.6211 219.406L78.6211 232.758C78.6211 236.012 77.3438 239.055 75.0273 241.328 72.7617 243.559 69.7812 244.777 66.6133 244.777 66.5391 244.777 66.4688 244.773 66.3945 244.773L28.4883 244.117C22.082 244.008 16.8984 238.902 16.6875 232.496L16.4102 185.242 12.5703 185.242C11.9023 185.242 11.3594 184.699 11.3594 184.031L11.3594 170.117 16.9023 170.117 16.9023 164.734 17.9336 164.734 17.9336 170.117 23.4766 170.117 23.4766 184.031C23.4766 184.699 22.9336 185.242 22.2695 185.242L18.5352 185.242 18.8125 232.453C18.9844 237.699 23.25 241.898 28.5234 241.988L66.4336 242.648C69.0898 242.684 71.6289 241.688 73.5352 239.812 75.4414 237.938 76.4922 235.434 76.4922 232.758L76.4922 219.406C76.4922 219.199 76.5703 219.02 76.668 218.855L37.1953 218.855C35.1523 218.855 33.4922 217.199 33.4922 215.152L33.4922 146.93C33.4922 144.887 35.1523 143.227 37.1953 143.227L87.0352 143.227C89.082 143.227 90.7383 144.887 90.7383 146.93L90.7383 215.152C90.7383 217.199 89.082 218.855 87.0352 218.855ZM55.0312 153.668 54.8516 153.668 54.8516 155.707C55.3945 155.695 55.7969 155.613 56.0703 155.453 56.3398 155.297 56.4727 155.039 56.4727 154.676 56.4727 154.004 55.9922 153.668 55.0312 153.668ZM56.2852 150.969C56.2852 150.586 56.168 150.32 55.9414 150.172 55.7148 150.02 55.3516 149.941 54.8516 149.93L54.8516 151.961C55.8047 151.938 56.2852 151.605 56.2852 150.969ZM20.1172 96.1719C20.8594 96.6719 21.7812 96.8281 22.6484 96.5977L24.375 96.1367C24.3281 96.0312 24.2812 95.9297 24.2461 95.8125L12.5117 54.1445C12.4883 54.0703 12.4844 53.9922 12.4727 53.9219L10.6836 54.5039C10.1016 54.6953 9.58594 55.043 9.21875 55.5312 7.6875 57.5469 4.41016 63.8008 8.02734 77.5508 11.0312 88.9727 17.4062 94.3359 20.1172 96.1719ZM35.0312 92.7773C35.0742 92.9414 35.1016 93.1016 35.1133 93.2656L35.7539 93.0938C37.418 92.6484 38.3945 90.9219 37.9141 89.2656L27.2656 52.4336C26.7812 50.7617 25.0078 49.8203 23.3516 50.3633L23.0039 50.4766C23.1211 50.6719 23.2266 50.8789 23.293 51.1055ZM86.5625 97.2422 88.2891 97.7031C89.1562 97.9336 90.0781 97.7773 90.8203 97.2734 93.5312 95.4414 99.9062 90.0781 102.91 78.6562 106.527 64.9062 103.254 58.6523 101.723 56.6367 101.352 56.1484 100.836 55.8008 100.254 55.6094L98.4648 55.0273C98.4531 55.1016 98.4492 55.1758 98.4258 55.25L86.6914 96.9219C86.6562 97.0352 86.6094 97.1367 86.5625 97.2422ZM73.0234 90.3711 83.6719 53.5391C84.1562 51.8672 85.9297 50.9297 87.5859 51.4688L87.9336 51.582C87.8164 51.7773 87.7109 51.9844 87.6484 52.2148L75.9062 93.8828C75.8633 94.0469 75.8359 94.2109 75.8242 94.3711L75.1836 94.1992C73.5195 93.7539 72.543 92.0273 73.0234 90.3711" fill="#141F35"/></g></g></svg>